<svg width="60" height="60" viewBox="0 0 60 60" fill="none" xmlns="http://www.w3.org/2000/svg">
<path d="M9.47368 0H50.5263C53.0389 0 55.4486 0.998118 57.2252 2.77478C59.0019 4.55144 60 6.96111 60 9.47368V50.5263C60 53.0389 59.0019 55.4486 57.2252 57.2252C55.4486 59.0019 53.0389 60 50.5263 60H9.47368C6.96111 60 4.55144 59.0019 2.77478 57.2252C0.998118 55.4486 0 53.0389 0 50.5263V9.47368C0 6.96111 0.998118 4.55144 2.77478 2.77478C4.55144 0.998118 6.96111 0 9.47368 0ZM9.47368 3.15789C7.79863 3.15789 6.19219 3.82331 5.00775 5.00775C3.82331 6.19219 3.15789 7.79863 3.15789 9.47368V46.0737L16.7053 32.4947L24.6 40.3895L40.3895 24.6L56.8421 41.0526V9.47368C56.8421 7.79863 56.1767 6.19219 54.9923 5.00775C53.8078 3.82331 52.2014 3.15789 50.5263 3.15789H9.47368ZM24.6 44.8737L16.7053 36.979L3.15789 50.5263C3.15789 52.2014 3.82331 53.8078 5.00775 54.9923C6.19219 56.1767 7.79863 56.8421 9.47368 56.8421H50.5263C52.2014 56.8421 53.8078 56.1767 54.9923 54.9923C56.1767 53.8078 56.8421 52.2014 56.8421 50.5263V45.5053L40.3895 29.0842L24.6 44.8737ZM17.3684 9.47368C19.4622 9.47368 21.4703 10.3054 22.9508 11.786C24.4314 13.2666 25.2632 15.2746 25.2632 17.3684C25.2632 19.4622 24.4314 21.4703 22.9508 22.9508C21.4703 24.4314 19.4622 25.2632 17.3684 25.2632C15.2746 25.2632 13.2666 24.4314 11.786 22.9508C10.3054 21.4703 9.47368 19.4622 9.47368 17.3684C9.47368 15.2746 10.3054 13.2666 11.786 11.786C13.2666 10.3054 15.2746 9.47368 17.3684 9.47368ZM17.3684 12.6316C16.1121 12.6316 14.9073 13.1306 14.019 14.019C13.1306 14.9073 12.6316 16.1121 12.6316 17.3684C12.6316 18.6247 13.1306 19.8295 14.019 20.7179C14.9073 21.6062 16.1121 22.1053 17.3684 22.1053C18.6247 22.1053 19.8295 21.6062 20.7179 20.7179C21.6062 19.8295 22.1053 18.6247 22.1053 17.3684C22.1053 16.1121 21.6062 14.9073 20.7179 14.019C19.8295 13.1306 18.6247 12.6316 17.3684 12.6316Z" fill="#A5A5A5"/>
</svg>
